<svg width="64" height="64" viewBox="0 0 64 64" fill="none" xmlns="http://www.w3.org/2000/svg">
<path d="M32.0001 3.55554C26.3743 3.55554 20.8749 5.22378 16.1972 8.34929C11.5196 11.4748 7.87377 15.9172 5.72088 21.1148C3.56799 26.3123 3.00469 32.0315 4.10223 37.5492C5.19976 43.0669 7.90883 48.1352 11.8869 52.1132C15.8649 56.0913 20.9332 58.8003 26.4509 59.8979C31.9686 60.9954 37.6878 60.4321 42.8853 58.2792C48.0829 56.1263 52.5253 52.4805 55.6508 47.8029C58.7763 43.1252 60.4446 37.6258 60.4446 32C60.4446 24.456 57.4477 17.2211 52.1134 11.8867C46.779 6.55236 39.5441 3.55554 32.0001 3.55554ZM32.0001 56.8889C27.0776 56.8889 22.2656 55.4292 18.1726 52.6943C14.0796 49.9595 10.8896 46.0724 9.00579 41.5246C7.12201 36.9767 6.62912 31.9724 7.58947 27.1444C8.54981 22.3164 10.9202 17.8817 14.401 14.4009C17.8818 10.9201 22.3166 8.54967 27.1445 7.58933C31.9725 6.62899 36.9768 7.12187 41.5247 9.00565C46.0725 10.8894 49.9596 14.0795 52.6945 18.1725C55.4293 22.2654 56.889 27.0774 56.889 32C56.889 38.6009 54.2668 44.9315 49.5992 49.5991C44.9316 54.2667 38.6011 56.8889 32.0001 56.8889Z" fill="#3F7F82"/>
<path d="M49.7778 21.5111C49.4447 21.18 48.9941 20.9941 48.5245 20.9941C48.0548 20.9941 47.6042 21.18 47.2711 21.5111L27.5378 41.1555L16.8711 30.4889C16.5458 30.1376 16.0943 29.93 15.6158 29.9116C15.1374 29.8933 14.6713 30.0658 14.32 30.3911C13.9688 30.7164 13.7611 31.168 13.7428 31.6464C13.7244 32.1248 13.8969 32.591 14.2222 32.9422L27.5378 46.2222L49.7778 24.0356C49.9444 23.8703 50.0767 23.6737 50.1669 23.457C50.2572 23.2404 50.3037 23.008 50.3037 22.7733C50.3037 22.5386 50.2572 22.3063 50.1669 22.0896C50.0767 21.873 49.9444 21.6764 49.7778 21.5111Z" fill="#3F7F82"/>
</svg>
