<svg width="223" height="200" viewBox="0 0 223 200" fill="none" xmlns="http://www.w3.org/2000/svg">
<path d="M131.441 164.613C135.75 161.308 140.803 159.11 146.158 158.211C143.859 159.756 143.583 164.558 146.692 172.818C149.212 179.569 151.861 185.99 153.83 190.571C154.124 191.27 154.418 191.914 154.676 192.502L150.849 194.176C150.592 193.569 150.316 192.925 150.003 192.245C147.98 187.682 145.073 181.372 141.853 174.933C137.861 166.986 134.145 163.987 131.441 164.613Z" fill="#F26121"/>
<path opacity="0.5" d="M131.441 164.613C135.75 161.308 140.803 159.11 146.158 158.211C143.859 159.756 143.583 164.558 146.692 172.818C149.212 179.569 151.861 185.99 153.83 190.571C154.124 191.27 154.418 191.914 154.676 192.502L150.849 194.176C150.592 193.569 150.316 192.925 150.003 192.245C147.98 187.682 145.073 181.372 141.853 174.933C137.861 166.986 134.145 163.987 131.441 164.613Z" fill="white"/>
<path opacity="0.2" d="M149.764 191.767C150.354 191.399 150.968 191.073 151.604 190.792C152.243 190.513 152.901 190.279 153.572 190.093C153.94 190.957 154.29 191.767 154.621 192.502L150.794 194.177C150.5 193.422 150.15 192.631 149.764 191.767Z" fill="black"/>
<path d="M147.17 198.389C147.333 198.769 147.578 199.108 147.887 199.383L148.09 199.548H148.182L148.55 199.751H148.752L149.065 199.861C151.163 200.211 153.318 199.896 155.228 198.96C157.211 198.202 158.904 196.837 160.066 195.06L160.195 194.765C160.233 194.701 160.264 194.634 160.287 194.563C160.326 194.424 160.357 194.283 160.379 194.14C160.379 194.14 160.379 194.14 160.379 194.029C160.379 193.919 160.379 193.845 160.379 193.772C160.381 193.361 160.3 192.954 160.14 192.576C159.983 192.203 159.744 191.87 159.441 191.601C158.282 190.405 155.209 190.479 152.082 191.84C148.954 193.201 146.784 195.519 146.876 197.102C146.872 197.548 146.972 197.989 147.17 198.389Z" fill="#F26121"/>
<path opacity="0.2" d="M150.151 198.261C149.691 197.23 151.089 195.63 153.278 194.673C155.467 193.717 157.564 193.79 158.024 194.839C158.3 195.464 157.877 196.329 156.994 197.12C157.73 195.998 156.994 194.986 155.559 195.041C153.937 195.249 152.413 195.935 151.181 197.01C150.518 197.709 150.243 198.371 150.831 198.849C150.683 198.804 150.546 198.728 150.429 198.626C150.312 198.525 150.217 198.4 150.151 198.261Z" fill="black"/>
<path d="M156.92 150.908C159.613 146.223 163.299 142.186 167.719 139.079C166.211 141.397 165.401 143.586 170.883 149.215C175.372 153.814 175.538 154.256 178.794 157.273L180.174 158.561L177.377 161.633L175.979 160.364C172.668 157.383 172.3 157.163 167.333 153.115C161.207 148.167 159.146 149.197 156.92 150.908Z" fill="#F26121"/>
<path opacity="0.5" d="M156.92 150.908C159.613 146.223 163.299 142.186 167.719 139.079C166.211 141.397 165.401 143.586 170.883 149.215C175.372 153.814 175.538 154.256 178.794 157.273L180.174 158.561L177.377 161.633L175.979 160.364C172.668 157.383 172.3 157.163 167.333 153.115C161.207 148.167 159.146 149.197 156.92 150.908Z" fill="white"/>
<path opacity="0.2" d="M175.427 159.867C175.822 159.289 176.252 158.736 176.715 158.211C177.192 157.699 177.702 157.22 178.242 156.776L180.174 158.616L177.378 161.688L175.427 159.867Z" fill="black"/>
<path d="M175.391 168.44C175.756 168.759 176.181 169.003 176.642 169.157H176.954H177.083C177.248 169.175 177.415 169.175 177.58 169.157H177.837H178.242C180.637 168.426 182.791 167.066 184.48 165.218C186.17 163.37 187.332 161.103 187.845 158.653V158.248C187.854 158.162 187.854 158.076 187.845 157.99C187.854 157.825 187.854 157.659 187.845 157.494V157.365L187.735 157.071C187.484 156.632 187.146 156.25 186.741 155.948C186.39 155.633 185.977 155.395 185.527 155.249C183.688 154.513 180.376 156.059 177.635 159.057C174.894 162.056 173.643 165.515 174.544 167.262C174.736 167.712 175.025 168.115 175.391 168.44Z" fill="#F26121"/>
<path opacity="0.2" d="M178.518 166.766C177.525 165.864 178.261 163.436 180.174 161.357C182.087 159.278 184.405 158.34 185.38 159.241C185.987 159.793 185.951 160.934 185.38 162.222C185.656 160.639 184.442 159.867 182.841 160.658C181.186 161.66 179.866 163.133 179.052 164.889C178.665 165.993 178.665 166.729 179.567 167.097C179.189 167.119 178.815 167.001 178.518 166.766Z" fill="black"/>
<path d="M174.765 126.624C175.313 122.092 176.758 117.714 179.015 113.746C178.628 116.028 180.854 118.713 186.373 120.976C188.018 121.82 189.721 122.546 191.469 123.147L192.831 123.625L191.727 126.955L190.421 126.514C188.659 125.95 186.857 125.519 185.031 125.226C179.18 123.736 175.814 124.564 174.765 126.624Z" fill="#F26121"/>
<path opacity="0.5" d="M174.765 126.624C175.313 122.092 176.758 117.714 179.015 113.746C178.628 116.028 180.854 118.713 186.373 120.976C188.018 121.82 189.721 122.546 191.469 123.147L192.831 123.625L191.727 126.955L190.421 126.514C188.659 125.95 186.857 125.519 185.031 125.226C179.18 123.736 175.814 124.564 174.765 126.624Z" fill="white"/>
<path opacity="0.2" d="M189.685 126.33C189.787 125.75 189.928 125.179 190.108 124.619C190.298 124.058 190.526 123.511 190.789 122.981L192.886 123.699L191.782 127.029L189.685 126.33Z" fill="black"/>
<path d="M192.371 131.701C192.697 131.805 193.042 131.836 193.382 131.793H193.695L194.045 131.665H194.21L194.449 131.517C195.8 130.35 196.809 128.84 197.373 127.147C197.936 125.453 198.032 123.639 197.65 121.896L197.54 121.638V121.473C197.481 121.369 197.414 121.271 197.338 121.179L197.191 121.013C196.932 120.786 196.633 120.611 196.308 120.498C195.99 120.381 195.649 120.343 195.314 120.388C193.916 120.388 192.205 122.393 191.285 125.152C190.365 127.912 190.568 130.487 191.653 131.37C191.871 131.522 192.114 131.634 192.371 131.701Z" fill="#F26121"/>
<path opacity="0.2" d="M193.916 129.696C193.015 129.402 192.775 127.618 193.419 125.723C194.063 123.828 195.259 122.522 196.197 122.834C196.749 123.018 197.062 123.773 197.043 124.674C196.767 123.589 195.756 123.423 194.928 124.398C194.147 125.537 193.719 126.881 193.695 128.261C193.695 129.071 194.008 129.623 194.67 129.531C194.564 129.611 194.442 129.668 194.311 129.697C194.181 129.725 194.046 129.725 193.916 129.696Z" fill="black"/>
<path d="M180.983 99.5624C179.184 94.4558 178.648 88.9897 179.419 83.6309C180.192 86.28 184.607 88.046 193.309 87.6597C200.392 87.3286 207.235 86.8135 212.129 86.372L214.208 86.1696L214.612 90.3088L212.552 90.5296C207.64 91.0263 200.833 91.8542 193.824 92.9028C185.214 94.2273 181.222 96.8029 180.983 99.5624Z" fill="#F26121"/>
<path opacity="0.5" d="M180.983 99.5624C179.184 94.4558 178.648 88.9897 179.419 83.6309C180.192 86.28 184.607 88.046 193.309 87.6597C200.392 87.3286 207.235 86.8135 212.129 86.372L214.208 86.1696L214.612 90.3088L212.552 90.5296C207.64 91.0263 200.833 91.8542 193.824 92.9028C185.214 94.2273 181.222 96.8029 180.983 99.5624Z" fill="white"/>
<path opacity="0.2" d="M212 90.5849C211.833 89.9014 211.716 89.2066 211.65 88.506C211.596 87.808 211.596 87.1068 211.65 86.4088L214.263 86.1697L214.667 90.3089L212 90.5849Z" fill="black"/>
<path d="M218.623 96.7477C219.136 96.6952 219.632 96.5321 220.076 96.2694C220.172 96.2211 220.264 96.1658 220.352 96.1039H220.462C220.61 96.0029 220.746 95.8856 220.867 95.7543L221.033 95.5336C221.121 95.4297 221.201 95.319 221.272 95.2024C222.518 92.8579 222.976 90.1745 222.578 87.5494C222.448 84.9023 221.482 82.3645 219.819 80.3011L219.524 80.0252L219.322 79.8412C219.18 79.732 219.025 79.6394 218.862 79.5653H218.733C218.632 79.5204 218.527 79.4834 218.42 79.4549C217.938 79.2813 217.422 79.2184 216.912 79.2709C216.419 79.3111 215.941 79.4621 215.514 79.7124C213.674 80.6323 212.533 84.3116 212.938 88.5796C213.343 92.8476 215.183 96.2326 217.188 96.7661C217.662 96.861 218.151 96.8547 218.623 96.7477Z" fill="#F26121"/>
<path opacity="0.2" d="M219.524 93.1236C218.126 93.2708 216.746 90.9896 216.452 88.0461C216.158 85.1026 217.077 82.5271 218.476 82.5271C219.34 82.5271 220.205 83.2814 220.794 84.6243C219.745 83.3182 218.292 83.7045 217.776 85.5258C217.392 87.5263 217.617 89.596 218.42 91.4679C219.009 92.5349 219.671 93.1236 220.499 92.6269C220.247 92.9072 219.899 93.0842 219.524 93.1236Z" fill="black"/>
<path d="M175.427 70.6612C172.34 66.601 169.81 62.1464 167.903 57.4156C169.412 59.5497 172.355 60.2671 176.513 58.4091C179.898 56.9005 183.062 55.2448 185.306 54.0123L186.263 53.4788L188.213 56.9189L187.275 57.4708C185.067 58.7586 182.032 60.6351 178.978 62.7691C175.262 65.3998 174.379 68.2881 175.427 70.6612Z" fill="#F26121"/>
<path opacity="0.5" d="M175.427 70.6612C172.34 66.601 169.81 62.1464 167.903 57.4156C169.412 59.5497 172.355 60.2671 176.513 58.4091C179.898 56.9005 183.062 55.2448 185.306 54.0123L186.263 53.4788L188.213 56.9189L187.275 57.4708C185.067 58.7586 182.032 60.6351 178.978 62.7691C175.262 65.3998 174.379 68.2881 175.427 70.6612Z" fill="white"/>
<path opacity="0.2" d="M186.741 57.7652C186.352 57.2293 185.996 56.6702 185.674 56.0911C185.339 55.4954 185.038 54.8812 184.773 54.2514L186.263 53.4236L188.213 56.8638L186.741 57.7652Z" fill="black"/>
<path d="M192.775 59.605C193.093 59.4263 193.369 59.1817 193.585 58.8875L193.714 58.6852C193.774 58.5736 193.823 58.4566 193.861 58.3356V58.1517V57.8573C193.987 55.9594 193.504 54.0708 192.481 52.4671C191.625 50.7793 190.261 49.4025 188.581 48.5302L188.305 48.4382H188.121H187.735H187.403C187.042 48.4714 186.692 48.5778 186.373 48.751C186.057 48.9242 185.785 49.1701 185.582 49.4684C184.626 50.5906 184.957 53.3317 186.484 55.9809C188.011 58.63 190.163 60.3409 191.616 60.1017C192.042 60.0503 192.444 59.8779 192.775 59.605Z" fill="#F26121"/>
<path opacity="0.2" d="M192.261 56.9926C191.378 57.4893 189.814 56.4039 188.784 54.5458C187.753 52.6878 187.606 50.8665 188.471 50.333C189.004 50.0202 189.814 50.333 190.587 51.0321C189.538 50.4802 188.747 51.1608 188.894 52.5038C189.223 53.9195 189.974 55.2023 191.046 56.1831C191.727 56.7166 192.334 56.9006 192.739 56.3303C192.667 56.6025 192.496 56.8384 192.261 56.9926Z" fill="black"/>
<path d="M158.926 47.1689C153.932 45.0783 149.515 41.816 146.048 37.6578C148.531 38.872 152.781 36.7932 158.282 30.1152C162.77 24.5962 166.928 19.2612 169.853 15.3979C170.295 14.8092 170.718 14.2573 171.086 13.7422L174.452 16.1338L173.22 17.8078C170.35 21.7631 166.413 27.3189 162.531 33.2243C157.785 40.4725 157.031 45.1453 158.926 47.1689Z" fill="#F26121"/>
<path opacity="0.5" d="M158.926 47.1689C153.932 45.0783 149.515 41.816 146.048 37.6578C148.531 38.872 152.781 36.7932 158.282 30.1152C162.77 24.5962 166.928 19.2612 169.853 15.3979C170.295 14.8092 170.718 14.2573 171.086 13.7422L174.452 16.1338L173.22 17.8078C170.35 21.7631 166.413 27.3189 162.531 33.2243C157.785 40.4725 157.031 45.1453 158.926 47.1689Z" fill="white"/>
<path opacity="0.2" d="M172.889 18.2678C172.246 17.9435 171.631 17.5683 171.049 17.1456C170.48 16.7358 169.944 16.2806 169.448 15.7842L171.012 13.687L174.452 16.1338L172.889 18.2678Z" fill="black"/>
<path d="M182.86 17.6055C183.181 17.1463 183.406 16.6269 183.522 16.0785C183.54 15.9627 183.54 15.8448 183.522 15.729C183.522 15.729 183.522 15.6186 183.522 15.5634C183.522 15.5082 183.522 15.1771 183.522 14.9931C183.532 14.8953 183.532 14.7966 183.522 14.6988C183.494 14.5496 183.457 14.4021 183.412 14.2573C182.41 11.5347 180.567 9.20207 178.15 7.59767C175.893 5.74384 173.101 4.66084 170.184 4.50704H169.743C169.645 4.49668 169.546 4.49668 169.449 4.50704L168.897 4.6542H168.75L168.418 4.81977C167.932 5.09277 167.506 5.46209 167.167 5.90518C166.847 6.34449 166.621 6.8457 166.505 7.37692C165.88 9.56612 168.05 13.1719 171.822 15.9498C175.593 18.7277 179.696 19.7395 181.59 18.5069C182.066 18.289 182.497 17.9832 182.86 17.6055Z" fill="#F26121"/>
<path opacity="0.2" d="M180.56 14.2938C179.659 15.5448 176.789 14.9929 174.195 13.0613C171.601 11.1296 170.221 8.59087 171.141 7.3399C171.693 6.58563 172.981 6.49365 174.544 7.00876C172.705 6.89838 171.969 8.37011 173.054 10.1178C174.41 11.8896 176.26 13.221 178.371 13.9443C179.659 14.257 180.615 14.1283 180.818 13.098C180.858 13.3044 180.857 13.5169 180.812 13.7225C180.768 13.9281 180.682 14.1225 180.56 14.2938Z" fill="black"/>
<path d="M134.348 32.3962C128.723 32.0524 123.189 30.8103 117.956 28.7169C120.808 28.9744 123.678 26.5829 125.462 20.7695C126.916 16.0048 128.093 11.3688 128.866 8.02063C128.976 7.50552 129.086 7.04561 129.178 6.58569L133.446 7.52392C133.446 7.96544 133.244 8.44375 133.134 8.95886C132.434 12.3254 131.551 17.035 130.871 21.9469C130.043 28.073 131.643 31.4396 134.348 32.3962Z" fill="#F26121"/>
<path opacity="0.5" d="M134.348 32.3962C128.723 32.0524 123.189 30.8103 117.956 28.7169C120.808 28.9744 123.678 26.5829 125.462 20.7695C126.916 16.0048 128.093 11.3688 128.866 8.02063C128.976 7.50552 129.086 7.04561 129.178 6.58569L133.446 7.52392C133.446 7.96544 133.244 8.44375 133.134 8.95886C132.434 12.3254 131.551 17.035 130.871 21.9469C130.043 28.073 131.643 31.4396 134.348 32.3962Z" fill="white"/>
<path opacity="0.2" d="M133.023 9.5661C132.293 9.4902 131.569 9.37351 130.852 9.21657C130.137 9.05798 129.431 8.86146 128.737 8.62787C128.902 7.92879 129.049 7.26651 129.178 6.65942L133.446 7.59766C133.391 8.22314 133.17 8.86703 133.023 9.5661Z" fill="black"/>
<path d="M139.057 5.59236C139.14 5.19187 139.14 4.77868 139.057 4.37818C139.065 4.29253 139.065 4.20629 139.057 4.12063C139.057 4.12063 139.057 4.12063 139.057 4.01025C139.011 3.87476 138.949 3.7451 138.873 3.62392C138.843 3.55873 138.806 3.49703 138.763 3.43995L138.579 3.16401C137.031 1.72546 135.126 0.727845 133.062 0.274909C130.998 -0.178028 128.85 -0.0697553 126.842 0.58847L126.548 0.75404L126.364 0.864422L126.032 1.14037L125.867 1.34273C125.616 1.66803 125.44 2.04503 125.352 2.44654C125.269 2.83461 125.269 3.23585 125.352 3.62392C125.591 5.27962 128.111 7.0457 131.478 7.78156C134.844 8.51743 137.862 7.98393 138.837 6.58579C138.965 6.26912 139.039 5.93343 139.057 5.59236Z" fill="#F26121"/>
<path opacity="0.2" d="M136.518 4.02862C136.279 5.11402 134.2 5.61074 131.882 5.09563C129.564 4.58052 127.89 3.25596 128.203 2.17056C128.35 1.48988 129.197 1.04837 130.374 0.937988C129.123 1.3979 129.068 2.61208 130.374 3.45833C131.81 4.23047 133.44 4.56918 135.065 4.43335C136.022 4.24938 136.629 3.89985 136.463 3.12719C136.592 3.41074 136.611 3.73154 136.518 4.02862Z" fill="black"/>
<path d="M103.276 28.8274C99.3147 29.8747 95.2978 30.6978 91.2441 31.2925C92.8814 30.8694 94.9235 29.6552 94.9235 27.9259C94.9874 26.6523 94.9134 25.3755 94.7027 24.1178C94.7027 23.9707 94.7027 23.8419 94.7027 23.7131L97.2415 23.198C97.233 23.3266 97.233 23.4557 97.2415 23.5843C97.5178 24.8282 97.9897 26.0204 98.6396 27.1165C99.1413 27.8452 99.8562 28.4009 100.686 28.7072C101.516 29.0135 102.421 29.0555 103.276 28.8274Z" fill="#F26121"/>
<path d="M103.276 28.8274C99.3147 29.8747 95.2978 30.6978 91.2441 31.2925C92.8814 30.8694 94.9235 29.6552 94.9235 27.9259C94.9874 26.6523 94.9134 25.3755 94.7027 24.1178C94.7027 23.9707 94.7027 23.8419 94.7027 23.7131L97.2415 23.198C97.233 23.3266 97.233 23.4557 97.2415 23.5843C97.5178 24.8282 97.9897 26.0204 98.6396 27.1165C99.1413 27.8452 99.8562 28.4009 100.686 28.7072C101.516 29.0135 102.421 29.0555 103.276 28.8274Z" fill="#F26121"/>
<path opacity="0.2" d="M97.4442 24.1362L96.1748 24.449C95.7497 24.5405 95.3198 24.6081 94.8871 24.6513C94.8871 24.3202 94.7583 24.0074 94.7031 23.7131L97.2419 23.198C97.2971 23.4923 97.3706 23.8051 97.4442 24.1362Z" fill="black"/>
<path d="M100.774 19.5371C100.703 19.2265 100.571 18.9328 100.388 18.6725L100.277 18.5253L100.038 18.3045H99.8909L99.6701 18.1757C98.1281 17.6501 96.4742 17.5435 94.8774 17.8667C93.2806 18.1899 91.7984 18.9314 90.5822 20.0154C90.5272 20.0783 90.4779 20.1461 90.435 20.2178C90.3978 20.2625 90.3669 20.312 90.343 20.3649C90.276 20.453 90.226 20.5528 90.1958 20.6593V20.8433C90.1313 21.1527 90.1313 21.4721 90.1958 21.7815C90.249 22.0889 90.3752 22.3792 90.5638 22.6277C91.2445 23.7131 93.5808 24.1731 96.1747 23.6396C98.7687 23.1061 100.756 21.7999 100.958 20.4937C100.969 20.1651 100.906 19.8383 100.774 19.5371Z" fill="#F26121"/>
<path opacity="0.2" d="M98.4373 19.2243C98.6028 20.0706 97.2967 21.064 95.4938 21.4319C93.6909 21.7999 92.1088 21.4319 91.9248 20.5673C91.8329 20.0338 92.2744 19.4451 93.0838 19.0036C92.348 19.721 92.6791 20.6041 93.8381 20.8432C95.1146 20.9667 96.3984 20.6971 97.5174 20.0706C98.1429 19.6475 98.4557 19.1875 98.0877 18.7092C98.2584 18.8372 98.3815 19.0185 98.4373 19.2243Z" fill="black"/>
<path d="M76.1775 37.6576C72.6126 41.7242 68.2227 44.9852 63.2999 47.2239C65.2315 45.2371 66.4457 43.2502 62.2512 36.8482C58.8295 31.6235 58.7559 31.182 56.1804 27.6499C55.8124 27.1164 55.4445 26.638 55.095 26.1781L58.4432 23.6946L59.5469 25.1479C62.1409 28.6065 62.4536 28.8272 66.4825 33.6656C71.468 39.5525 73.7308 38.927 76.1775 37.6576Z" fill="#F26121"/>
<path opacity="0.5" d="M76.1775 37.6576C72.6126 41.7242 68.2227 44.9852 63.2999 47.2239C65.2315 45.2371 66.4457 43.2502 62.2512 36.8482C58.8295 31.6235 58.7559 31.182 56.1804 27.6499C55.8124 27.1164 55.4445 26.638 55.095 26.1781L58.4432 23.6946L59.5469 25.1479C62.1409 28.6065 62.4536 28.8272 66.4825 33.6656C71.468 39.5525 73.7308 38.927 76.1775 37.6576Z" fill="white"/>
<path opacity="0.2" d="M60.0436 25.8287C59.5488 26.319 59.0201 26.774 58.4614 27.19C57.8792 27.6127 57.264 27.988 56.6218 28.3122C56.0699 27.5579 55.5548 26.8589 55.0581 26.215L58.4063 23.7314L60.0436 25.8287Z" fill="black"/>
<path d="M61.6441 17.4213C61.3563 17.0271 60.9859 16.7006 60.5587 16.4647L60.2643 16.3359H60.154L59.8044 16.1335H59.5653H59.1605C56.6726 16.4074 54.3032 17.3416 52.2977 18.8392C50.2923 20.3368 48.7237 22.3435 47.7546 24.6512C47.7459 24.7798 47.7459 24.9089 47.7546 25.0375C47.7444 25.1231 47.7444 25.2095 47.7546 25.2951C47.7455 25.4605 47.7455 25.6263 47.7546 25.7918C47.7546 25.7918 47.7546 25.8838 47.7546 25.939C47.7371 26.0363 47.7371 26.136 47.7546 26.2333C47.8474 26.7107 48.0419 27.1624 48.3249 27.5579C48.6209 27.9276 48.9826 28.2394 49.3919 28.4777C51.0476 29.5447 54.5982 28.6433 57.8728 26.2149C61.1474 23.7866 63.0055 20.6959 62.4536 18.7459C62.2876 18.2487 62.0108 17.7958 61.6441 17.4213Z" fill="#F26121"/>
<path opacity="0.2" d="M58.3142 18.47C59.1236 19.537 57.9463 21.7814 55.6835 23.4555C53.4207 25.1296 50.9555 25.6263 50.1645 24.5593C49.6862 23.897 49.9437 22.7197 50.7531 21.6343C50.2012 23.1244 51.2315 24.1178 52.9608 23.6395C54.777 22.9668 56.3522 21.7693 57.4863 20.1993C58.075 19.2059 58.2222 18.3596 57.3944 17.9365C57.7574 17.9918 58.086 18.1824 58.3142 18.47Z" fill="black"/>
<path d="M54.2853 58.446C52.8643 62.7639 50.6147 66.7632 47.6625 70.2198C48.4904 68.049 46.8898 65.032 41.9043 61.7942C40.4722 60.6762 38.9664 59.6559 37.3972 58.7403L36.1462 58.0412L37.8755 54.969L39.1081 55.6681C40.7057 56.5386 42.366 57.2888 44.0752 57.9125C49.355 60.488 52.7584 60.2856 54.2853 58.446Z" fill="#F26121"/>
<path opacity="0.5" d="M54.2853 58.446C52.8643 62.7639 50.6147 66.7632 47.6625 70.2198C48.4904 68.049 46.8898 65.032 41.9043 61.7942C40.4722 60.6762 38.9664 59.6559 37.3972 58.7403L36.1462 58.0412L37.8755 54.969L39.1081 55.6681C40.7057 56.5386 42.366 57.2888 44.0752 57.9125C49.355 60.488 52.7584 60.2856 54.2853 58.446Z" fill="white"/>
<path opacity="0.2" d="M39.7154 56.0544C39.5096 56.6082 39.2573 57.1436 38.9611 57.6549C38.6771 58.1714 38.351 58.6636 37.9861 59.1266L36.0544 58.0412L37.7837 54.969L39.7154 56.0544Z" fill="black"/>
<path d="M38.0962 50.2777C37.794 50.1002 37.453 49.9992 37.1028 49.9834H36.79H36.4221H36.2566H35.999C34.4602 50.8802 33.1886 52.1713 32.3155 53.7236C31.4423 55.2759 30.9992 57.0331 31.0319 58.8138C31.0236 58.9056 31.0236 58.9979 31.0319 59.0897C31.0319 59.0897 31.0319 59.2001 31.0319 59.2553C31.074 59.3686 31.1232 59.4792 31.1791 59.5865C31.2158 59.6519 31.2589 59.7136 31.3079 59.7704C31.5045 60.0516 31.7624 60.2843 32.0621 60.4511C32.3603 60.6071 32.6845 60.7069 33.0188 60.7454C34.4169 60.9662 36.4589 59.3473 37.8754 56.827C39.292 54.3066 39.6048 51.7127 38.7033 50.6457C38.5186 50.496 38.3144 50.3722 38.0962 50.2777Z" fill="#F26121"/>
<path opacity="0.2" d="M36.2015 51.9335C37.0293 52.4118 36.9005 54.1963 35.9255 55.944C34.9504 57.6917 33.4787 58.7219 32.6509 58.262C32.1358 57.9676 31.9886 57.1766 32.1909 56.2015C32.1909 57.3237 33.2212 57.6733 34.2146 56.8638C35.1914 55.8944 35.863 54.66 36.1463 53.3133C36.2383 52.5038 36.1463 51.9151 35.4472 51.8783C35.6967 51.8023 35.9657 51.8219 36.2015 51.9335Z" fill="black"/>
<path d="M42.9162 83.9622C43.7036 89.3214 43.1925 94.7914 41.4261 99.9121C41.187 97.1526 37.2132 94.5954 28.6772 93.3261C21.7049 92.3142 14.9533 91.4864 10.0782 91.0449L8.03613 90.8425L8.4225 86.7033L10.4645 86.8872C15.3396 87.3103 22.128 87.7887 29.1555 88.0646C37.7284 88.3957 42.162 86.6297 42.9162 83.9622Z" fill="#F26121"/>
<path opacity="0.5" d="M42.9162 83.9622C43.7036 89.3214 43.1925 94.7914 41.4261 99.9121C41.187 97.1526 37.2132 94.5954 28.6772 93.3261C21.7049 92.3142 14.9533 91.4864 10.0782 91.0449L8.03613 90.8425L8.4225 86.7033L10.4645 86.8872C15.3396 87.3103 22.128 87.7887 29.1555 88.0646C37.7284 88.3957 42.162 86.6297 42.9162 83.9622Z" fill="white"/>
<path opacity="0.2" d="M11.0351 86.9425C11.0805 87.6409 11.0805 88.3414 11.0351 89.0397C10.9605 89.733 10.8438 90.4211 10.6855 91.1002L8.07324 90.8426L8.45956 86.7034L11.0351 86.9425Z" fill="black"/>
<path d="M5.69983 79.6204C5.18838 79.582 4.67453 79.651 4.19129 79.8228C4.08342 79.8484 3.97862 79.8854 3.87858 79.9332H3.74979L3.28987 80.2275L3.08753 80.3931L2.79318 80.6874C1.2483 82.8229 0.305247 85.3341 0.0625381 87.9586C-0.180171 90.5831 0.286375 93.2246 1.41343 95.6071L1.6526 95.9383C1.70924 96.0098 1.77066 96.0775 1.83652 96.1406C1.95128 96.2772 2.08089 96.4006 2.22289 96.5086H2.35162C2.43307 96.5844 2.5263 96.6465 2.62762 96.6925C3.06908 96.9432 3.55763 97.0998 4.06255 97.1525C4.55931 97.2008 5.06066 97.1444 5.53426 96.9869C7.5395 96.435 9.32397 93.0316 9.7287 88.7636C10.1334 84.4956 8.99281 80.8162 7.11635 79.9332C6.6696 79.736 6.18808 79.6297 5.69983 79.6204Z" fill="#F26121"/>
<path opacity="0.2" d="M4.13627 83.0055C5.53441 83.1343 6.45428 85.6362 6.17833 88.5245C5.90238 91.4127 4.54103 93.7491 3.14289 93.6204C2.27825 93.6204 1.59757 92.5533 1.30322 91.1184C2.07588 92.6085 3.58437 92.4798 4.43062 90.8057C5.18859 88.9132 5.36165 86.8369 4.92737 84.8451C4.55943 83.6862 4.00753 83.0055 3.0877 83.3182C3.38964 83.094 3.76084 82.9833 4.13627 83.0055Z" fill="black"/>
<path d="M43.0084 113.47C45.2509 118.047 46.8896 122.895 47.8835 127.893C46.7981 125.52 44.0754 124.214 39.697 125.281C36.1097 126.109 32.7247 127.121 30.3147 127.893L29.2845 128.243L28.0151 124.564L29.0453 124.214C31.4369 123.368 34.7299 122.098 38.0781 120.535C42.1806 118.658 43.5971 116.009 43.0084 113.47Z" fill="#F26121"/>
<path opacity="0.5" d="M43.0084 113.47C45.2509 118.047 46.8896 122.895 47.8835 127.893C46.7981 125.52 44.0754 124.214 39.697 125.281C36.1097 126.109 32.7247 127.121 30.3147 127.893L29.2845 128.243L28.0151 124.564L29.0453 124.214C31.4369 123.368 34.7299 122.098 38.0781 120.535C42.1806 118.658 43.5971 116.009 43.0084 113.47Z" fill="white"/>
<path opacity="0.2" d="M29.6341 123.938C29.9109 124.538 30.1565 125.152 30.3699 125.778C30.5806 126.381 30.7587 126.995 30.9034 127.617L29.2845 128.169L28.0151 124.49L29.6341 123.938Z" fill="black"/>
<path d="M24.0411 120.995C23.6977 121.109 23.3837 121.297 23.1213 121.547L22.9557 121.712C22.8776 121.816 22.8098 121.927 22.7533 122.043L22.6614 122.209L22.551 122.485C22.069 124.313 22.1851 126.247 22.8821 128.004C23.4039 129.823 24.4852 131.432 25.9727 132.603L26.2303 132.75H26.3959C26.5129 132.804 26.6367 132.841 26.7638 132.861H26.8558H27.095C27.4544 132.906 27.8195 132.869 28.1619 132.75C28.5075 132.641 28.8225 132.452 29.0818 132.198C30.2224 131.278 30.4063 128.519 29.4313 125.631C28.4563 122.742 26.635 120.645 25.1449 120.608C24.7504 120.642 24.3707 120.775 24.0411 120.995Z" fill="#F26121"/>
<path opacity="0.2" d="M24.0228 123.644C24.9611 123.331 26.2856 124.692 26.9663 126.698C27.647 128.703 27.4263 130.579 26.4696 130.91C25.8809 131.094 25.1451 130.653 24.5196 129.807C25.4578 130.561 26.3592 130.046 26.4696 128.703C26.4097 127.243 25.9165 125.834 25.053 124.656C24.4827 124.012 23.9309 123.717 23.4158 124.196C23.5397 123.941 23.7571 123.743 24.0228 123.644Z" fill="black"/>
<path d="M55.2421 139.851C59.9695 142.577 63.7554 146.677 66.0961 151.607C63.7965 150.043 58.4063 152.048 50.0358 159.131C48.049 160.805 43.1739 164.227 38.5931 168.329L36.6615 170.169L33.8284 167.115L35.76 165.276C40.304 161.044 45.1607 156.464 46.4485 155.176C54.2854 147.504 56.6218 142.28 55.2421 139.851Z" fill="#F26121"/>
<path opacity="0.5" d="M55.2421 139.851C59.9695 142.577 63.7554 146.677 66.0961 151.607C63.7965 150.043 58.4063 152.048 50.0358 159.131C48.049 160.805 43.1739 164.227 38.5931 168.329L36.6615 170.169L33.8284 167.115L35.76 165.276C40.304 161.044 45.1607 156.464 46.4485 155.176C54.2854 147.504 56.6218 142.28 55.2421 139.851Z" fill="white"/>
<path opacity="0.2" d="M35.76 165.349C36.3046 165.781 36.8151 166.255 37.287 166.765C37.7614 167.285 38.1979 167.839 38.5931 168.421L36.6615 170.261L33.8284 167.207L35.76 165.349Z" fill="black"/>
<path d="M25.8442 164.116C25.4346 164.495 25.1141 164.96 24.9059 165.478C24.8551 165.585 24.812 165.696 24.7771 165.809V165.975C24.7346 166.162 24.7039 166.353 24.6852 166.545C24.6761 166.637 24.6761 166.729 24.6852 166.821C24.6756 166.974 24.6756 167.128 24.6852 167.281C25.2874 170.089 26.6277 172.686 28.5679 174.804C30.5081 176.922 32.9781 178.485 35.7232 179.33H36.1647H36.459H37.0477H37.1949H37.5444C38.0765 179.16 38.5658 178.878 38.9794 178.503C39.378 178.129 39.6971 177.678 39.9176 177.178C40.9294 175.154 39.4761 171.199 36.2383 167.759C33.0005 164.319 29.2291 162.553 27.1319 163.399C26.6637 163.56 26.2277 163.803 25.8442 164.116Z" fill="#F26121"/>
<path opacity="0.2" d="M27.4632 167.851C28.5854 166.821 31.2897 167.851 33.4789 170.279C35.6681 172.708 36.5327 175.43 35.4105 176.479C34.7114 177.123 33.4053 176.957 31.9888 176.166C33.8284 176.626 34.785 175.302 34.0308 173.388C33.0422 171.389 31.4792 169.73 29.542 168.624C28.3462 168.072 27.3712 168.017 26.9849 168.992C26.9849 168.779 27.0273 168.569 27.1094 168.373C27.1915 168.177 27.3118 168 27.4632 167.851Z" fill="black"/>
<path d="M76.1409 158.322C81.6917 159.438 86.9485 161.7 91.5757 164.963C88.7794 164.264 85.1552 166.802 81.5863 173.94C78.6612 179.698 79.0476 179.165 77.2447 183.267L76.4904 184.997L72.48 183.267C72.7007 182.734 72.9583 182.164 73.2158 181.538C74.9635 177.417 74.3012 177.859 76.4904 171.751C79.1764 164.3 78.5877 159.867 76.1409 158.322Z" fill="#F26121"/>
<path opacity="0.5" d="M76.1409 158.322C81.6917 159.438 86.9485 161.7 91.5757 164.963C88.7794 164.264 85.1552 166.802 81.5863 173.94C78.6612 179.698 79.0476 179.165 77.2447 183.267L76.4904 184.997L72.48 183.267C72.7007 182.734 72.9583 182.164 73.2158 181.538C74.9635 177.417 74.3012 177.859 76.4904 171.751C79.1764 164.3 78.5877 159.867 76.1409 158.322Z" fill="white"/>
<path opacity="0.2" d="M73.2526 181.428C73.9577 181.644 74.6515 181.896 75.3314 182.182C75.9998 182.476 76.6508 182.808 77.2815 183.175C77.0055 183.819 76.7296 184.426 76.4904 185.015L72.48 183.286C72.6823 182.697 72.9951 182.09 73.2526 181.428Z" fill="black"/>
<path d="M66.5929 184.187C66.4346 184.566 66.3533 184.972 66.3538 185.383C66.3538 185.475 66.3538 185.567 66.3538 185.659C66.3538 185.751 66.3538 185.659 66.3538 185.769C66.3732 185.908 66.4103 186.044 66.4641 186.174C66.4565 186.241 66.4565 186.309 66.4641 186.376C66.5057 186.478 66.555 186.576 66.6113 186.671C67.8596 188.376 69.5417 189.715 71.4829 190.55C73.424 191.384 75.5533 191.684 77.6493 191.417L77.9621 191.307H78.1644L78.5323 191.104H78.6244L78.8267 190.939C79.1317 190.661 79.376 190.322 79.5442 189.945C79.7025 189.579 79.7839 189.185 79.7833 188.786C79.7833 187.131 77.7045 184.905 74.5587 183.562C71.4128 182.219 68.3222 182.145 67.2 183.359C66.9486 183.596 66.7428 183.876 66.5929 184.187Z" fill="#F26121"/>
<path opacity="0.2" d="M68.7821 186.211C69.2236 185.181 71.3577 185.107 73.5469 186.045C75.7361 186.984 77.1158 188.584 76.6743 189.614C76.3984 190.258 75.4785 190.534 74.3011 190.424C75.6257 190.203 75.9016 189.026 74.8346 187.959C73.5732 186.929 72.0387 186.29 70.4194 186.119C69.4444 186.119 68.7637 186.358 68.8005 187.131C68.7359 186.986 68.7009 186.831 68.6977 186.673C68.6946 186.515 68.7233 186.358 68.7821 186.211Z" fill="black"/>
<path d="M106.109 168.127C110.199 167.843 114.302 167.793 118.398 167.98C116.705 168.09 114.479 168.9 114.075 170.574C113.769 171.821 113.603 173.098 113.578 174.382C113.56 174.516 113.56 174.652 113.578 174.786H110.984C110.974 174.652 110.974 174.516 110.984 174.382C110.934 173.126 110.692 171.885 110.266 170.702C109.923 169.897 109.339 169.218 108.595 168.757C107.851 168.296 106.983 168.076 106.109 168.127Z" fill="#F26121"/>
<path opacity="0.5" d="M106.109 168.127C110.199 167.843 114.302 167.793 118.398 167.98C116.705 168.09 114.479 168.9 114.075 170.574C113.769 171.821 113.603 173.098 113.578 174.382C113.56 174.516 113.56 174.652 113.578 174.786H110.984C110.974 174.652 110.974 174.516 110.984 174.382C110.934 173.126 110.692 171.885 110.266 170.702C109.923 169.897 109.339 169.218 108.595 168.757C107.851 168.296 106.983 168.076 106.109 168.127Z" fill="white"/>
<path opacity="0.2" d="M110.966 173.848H112.253C112.713 173.848 113.155 173.848 113.56 173.848C113.56 174.179 113.56 174.492 113.56 174.805H110.966C110.966 174.51 110.966 174.198 110.966 173.848Z" fill="black"/>
<path d="M106.808 177.73C106.822 178.048 106.897 178.36 107.029 178.65C107.052 178.714 107.083 178.776 107.121 178.834C107.172 178.931 107.24 179.018 107.323 179.091L107.433 179.202L107.636 179.386C109.023 180.265 110.65 180.689 112.29 180.6C113.935 180.646 115.554 180.184 116.926 179.275C116.992 179.219 117.053 179.157 117.11 179.091L117.239 178.981C117.306 178.893 117.368 178.801 117.423 178.705V178.521C117.557 178.233 117.626 177.919 117.625 177.601C117.626 177.289 117.556 176.981 117.423 176.7C116.963 175.504 114.737 174.621 112.088 174.658C109.439 174.694 107.249 175.633 106.808 176.828C106.753 177.126 106.753 177.432 106.808 177.73Z" fill="#F26121"/>
<path opacity="0.2" d="M108.997 178.466C108.997 177.601 110.469 176.884 112.309 176.847C114.148 176.81 115.62 177.527 115.638 178.392C115.638 178.926 115.086 179.422 114.222 179.717C115.068 179.146 114.902 178.208 113.817 177.877C112.617 177.517 111.338 177.517 110.138 177.877C109.439 178.19 109.052 178.576 109.31 179.11C109.125 178.945 109.012 178.713 108.997 178.466Z" fill="black"/>
<path d="M46.798 126.256C41.2286 113.509 39.5646 99.3963 42.0162 85.7033C44.4678 72.0103 50.925 59.3518 60.5712 49.3289C70.2173 39.3059 82.6192 32.3685 96.2082 29.3943C109.797 26.42 123.963 27.5423 136.914 32.6193C149.866 37.6963 161.02 46.5 168.968 57.9169C176.915 69.3338 181.299 82.8511 181.563 96.7593C181.828 110.668 177.963 124.342 170.456 136.053C162.948 147.764 152.137 156.986 139.388 162.553C122.297 170.015 102.941 170.384 85.5772 163.577C68.2137 156.771 54.2647 143.346 46.798 126.256Z" fill="#F26121"/>
<path opacity="0.65" d="M46.798 126.256C41.2286 113.509 39.5646 99.3963 42.0162 85.7033C44.4678 72.0103 50.925 59.3518 60.5712 49.3289C70.2173 39.3059 82.6192 32.3685 96.2082 29.3943C109.797 26.42 123.963 27.5423 136.914 32.6193C149.866 37.6963 161.02 46.5 168.968 57.9169C176.915 69.3338 181.299 82.8511 181.563 96.7593C181.828 110.668 177.963 124.342 170.456 136.053C162.948 147.764 152.137 156.986 139.388 162.553C122.297 170.015 102.941 170.384 85.5772 163.577C68.2137 156.771 54.2647 143.346 46.798 126.256Z" fill="white"/>
<path opacity="0.2" d="M64.2566 45.7892C80.1329 32.3044 133.796 20.9169 164.058 62.107C194.321 103.297 160.232 149.436 145.459 159.609C154.106 154.795 161.639 148.209 167.566 140.283C173.492 132.357 177.679 123.269 179.852 113.614C182.024 103.959 182.134 93.9537 180.174 84.253C178.214 74.5523 174.229 65.3746 168.478 57.3202C162.727 49.2659 155.34 42.5163 146.802 37.5129C138.263 32.5096 128.764 29.3652 118.926 28.2855C109.089 27.2057 99.1337 28.2149 89.7129 31.247C80.2921 34.2792 71.6176 39.2659 64.2566 45.8812V45.7892Z" fill="white"/>
<path opacity="0.1" d="M164.224 144.34C150.095 159.664 98.2165 177.454 63.1893 140.238C28.1621 103.021 56.3826 53.0742 69.8305 41.3003C61.821 47.1238 55.132 54.5736 50.2015 63.1617C45.271 71.7498 42.2103 81.2826 41.2196 91.1357C40.229 100.989 41.3309 110.94 44.4531 120.338C47.5753 129.736 52.6475 138.368 59.3374 145.669C66.0273 152.971 74.1841 158.776 83.2736 162.707C92.3631 166.637 102.18 168.603 112.082 168.476C121.984 168.348 131.748 166.131 140.733 161.968C149.719 157.806 157.724 151.792 164.224 144.322V144.34Z" fill="#F26121"/>
<path d="M133.244 58.5379C128.314 56.5694 125.536 51.9703 127.026 48.2725C128.516 44.5748 133.704 43.1766 138.616 45.1451C143.528 47.1135 146.324 51.7127 144.834 55.4104C143.344 59.1082 138.156 60.5247 133.244 58.5379Z" fill="#F26121"/>
<path opacity="0.2" d="M133.244 58.5379C128.314 56.5694 125.536 51.9703 127.026 48.2725C128.516 44.5748 133.704 43.1766 138.616 45.1451C143.528 47.1135 146.324 51.7127 144.834 55.4104C143.344 59.1082 138.156 60.5247 133.244 58.5379Z" fill="white"/>
<path opacity="0.15" d="M142.81 52.0072C143.803 54.3068 140.437 56.9375 135.782 55.3922C132.103 54.1964 129.325 51.2161 129.472 48.9349C129.509 48.538 129.624 48.1523 129.811 47.8001C129.998 47.448 130.253 47.1363 130.56 46.8831C130.868 46.63 131.223 46.4403 131.605 46.3252C131.987 46.21 132.387 46.1716 132.784 46.2122C131.238 46.8009 130.65 48.4198 131.956 50.3699C132.818 51.5996 133.967 52.5996 135.305 53.2826C136.642 53.9657 138.126 54.311 139.627 54.2884C141.522 54.1964 142.736 53.2213 142.81 52.0072Z" fill="black"/>
<path d="M77.6126 122.374C81.7886 125.649 83.1316 130.855 80.7032 133.983C78.2748 137.11 72.8662 137 68.7086 133.725C64.5509 130.451 63.1896 125.263 65.618 122.135C68.0463 119.008 73.4549 119.155 77.6126 122.374Z" fill="#F26121"/>
<path opacity="0.2" d="M77.6126 122.374C81.7886 125.649 83.1316 130.855 80.7032 133.983C78.2748 137.11 72.8662 137 68.7086 133.725C64.5509 130.451 63.1896 125.263 65.618 122.135C68.0463 119.008 73.4549 119.155 77.6126 122.374Z" fill="white"/>
<path opacity="0.15" d="M66.6112 125.962C66.2985 123.478 70.2906 121.914 74.301 124.674C77.5021 126.882 79.3233 130.524 78.5322 132.658C78.3906 133.03 78.1756 133.369 77.9 133.656C77.6245 133.942 77.294 134.171 76.9283 134.327C76.5626 134.483 76.1692 134.564 75.7716 134.565C75.3739 134.566 74.9802 134.487 74.6137 134.332C76.251 134.222 77.2629 132.824 76.5638 130.653C76.0899 129.218 75.2696 127.921 74.1754 126.878C73.0812 125.835 71.747 125.078 70.2906 124.674C68.4509 124.232 67.016 124.821 66.6112 125.962Z" fill="black"/>
<path d="M131.551 103.297C132.71 98.9923 136.261 96.2144 139.48 97.0791C142.7 97.9437 144.411 102.12 143.27 106.425C142.129 110.729 138.56 113.507 135.341 112.643C132.122 111.778 130.429 107.584 131.551 103.297Z" fill="#F26121"/>
<path opacity="0.2" d="M131.551 103.297C132.71 98.9923 136.261 96.2144 139.48 97.0791C142.7 97.9437 144.411 102.12 143.27 106.425C142.129 110.729 138.56 113.507 135.341 112.643C132.122 111.778 130.429 107.584 131.551 103.297Z" fill="white"/>
<path opacity="0.15" d="M137.99 110.601C136.151 111.668 133.649 109.129 134.458 105.082C135.084 101.881 137.291 99.2682 139.204 99.1578C139.539 99.148 139.871 99.2048 140.183 99.3247C140.495 99.4447 140.78 99.6255 141.021 99.8566C141.263 100.088 141.456 100.365 141.589 100.671C141.723 100.977 141.794 101.307 141.798 101.641C141.173 100.409 139.756 100.096 138.248 101.384C137.328 102.227 136.622 103.278 136.19 104.449C135.758 105.621 135.612 106.878 135.764 108.117C136.04 109.754 137.07 110.674 137.99 110.601Z" fill="black"/>
<path d="M101.27 77.3393C96.7633 80.1172 91.4099 79.6389 89.3126 76.2539C87.2154 72.8689 89.1654 67.8466 93.6542 65.0687C98.143 62.2909 103.515 62.7508 105.612 66.1542C107.709 69.5575 105.796 74.543 101.27 77.3393Z" fill="#F26121"/>
<path opacity="0.2" d="M101.27 77.3393C96.7633 80.1172 91.4099 79.6389 89.3126 76.2539C87.2154 72.8689 89.1654 67.8466 93.6542 65.0687C98.143 62.2909 103.515 62.7508 105.612 66.1542C107.709 69.5575 105.796 74.543 101.27 77.3393Z" fill="white"/>
<path opacity="0.15" d="M101.675 65.8047C104.122 66.375 104.232 70.6246 100.24 73.4761C97.0761 75.7389 93.0288 76.1988 91.2995 74.7271C90.9938 74.4624 90.7447 74.1387 90.5672 73.7753C90.3898 73.4119 90.2877 73.0164 90.2671 72.6125C90.2465 72.2087 90.3078 71.8048 90.4472 71.4252C90.5867 71.0457 90.8016 70.6983 91.0788 70.4039C90.6373 71.986 91.5939 73.4209 93.9487 73.5313C95.4488 73.5505 96.9316 73.2097 98.2728 72.5375C99.6141 71.8653 100.775 70.8813 101.657 69.668C102.669 68.0859 102.614 66.5406 101.675 65.8047Z" fill="black"/>
<path d="M154.695 104.75C156.332 99.7281 160.729 96.6375 164.518 97.8701C168.308 99.1026 170.037 104.199 168.419 109.239C166.8 114.28 162.366 117.352 158.576 116.12C154.787 114.887 153.039 109.791 154.695 104.75Z" fill="#F26121"/>
<path opacity="0.2" d="M154.695 104.75C156.332 99.7281 160.729 96.6375 164.518 97.8701C168.308 99.1026 170.037 104.199 168.419 109.239C166.8 114.28 162.366 117.352 158.576 116.12C154.787 114.887 153.039 109.791 154.695 104.75Z" fill="white"/>
<path opacity="0.15" d="M161.851 113.875C159.606 115.016 156.773 111.833 157.988 107.087C158.963 103.407 161.667 100.372 164.022 100.354C164.42 100.363 164.813 100.452 165.177 100.615C165.541 100.778 165.869 101.012 166.141 101.303C166.413 101.594 166.625 101.937 166.763 102.311C166.902 102.685 166.964 103.083 166.947 103.481C166.284 101.972 164.61 101.513 162.752 102.929C161.591 103.88 160.676 105.097 160.087 106.478C159.497 107.859 159.25 109.361 159.367 110.858C159.588 112.734 160.637 113.875 161.851 113.875Z" fill="black"/>
<path d="M90.8211 103.039C91.0235 107.731 88.3376 111.649 84.8238 111.796C81.3101 111.943 78.2746 108.282 78.0722 103.591C77.8699 98.9001 80.5558 95 84.088 94.8345C87.6201 94.6689 90.6188 98.3666 90.8211 103.039Z" fill="#F26121"/>
<path opacity="0.2" d="M90.8211 103.039C91.0235 107.731 88.3376 111.649 84.8238 111.796C81.3101 111.943 78.2746 108.282 78.0722 103.591C77.8699 98.9001 80.5558 95 84.088 94.8345C87.6201 94.6689 90.6188 98.3666 90.8211 103.039Z" fill="white"/>
<path opacity="0.15" d="M82.0642 97.7229C83.5728 96.0672 86.9026 97.8333 87.3625 102.138C87.7304 105.56 86.3506 108.871 84.4558 109.497C84.1239 109.615 83.7717 109.665 83.4202 109.644C83.0686 109.623 82.7248 109.532 82.4091 109.376C82.0934 109.22 81.8123 109.002 81.5824 108.735C81.3525 108.468 81.1786 108.158 81.0708 107.823C82.0826 108.853 83.6095 108.724 84.7501 106.958C85.416 105.81 85.7953 104.518 85.8562 103.193C85.917 101.867 85.6575 100.546 85.0997 99.3418C84.2902 97.9436 83.0761 97.3365 82.0642 97.7229Z" fill="black"/>
<path d="M106.146 133.872C113.504 133.615 119.594 137.883 119.796 143.402C119.998 148.921 114.277 153.612 106.918 153.869C99.5597 154.127 93.4888 149.859 93.2864 144.34C93.0841 138.821 98.8238 134.203 106.146 133.872Z" fill="#F26121"/>
<path opacity="0.2" d="M106.146 133.872C113.504 133.615 119.594 137.883 119.796 143.402C119.998 148.921 114.277 153.612 106.918 153.869C99.5597 154.127 93.4888 149.859 93.2864 144.34C93.0841 138.821 98.8238 134.203 106.146 133.872Z" fill="white"/>
<path opacity="0.15" d="M97.6831 147.596C95.1444 145.241 97.9407 140.035 104.692 139.354C110.064 138.821 115.234 141.047 116.319 144.009C116.497 144.532 116.569 145.085 116.53 145.635C116.492 146.186 116.345 146.724 116.096 147.217C115.848 147.711 115.504 148.149 115.084 148.508C114.664 148.867 114.177 149.139 113.651 149.307C115.27 147.725 115.105 145.333 112.364 143.586C110.578 142.521 108.561 141.905 106.485 141.79C104.409 141.674 102.336 142.063 100.443 142.923C98.0879 144.119 97.1128 146.014 97.6831 147.596Z" fill="black"/>
<path d="M102.761 48.714C98.9341 49.6706 95.2364 48.1069 94.5189 45.2186C93.8015 42.3304 96.3586 39.2213 100.148 38.2647C103.938 37.3081 107.691 38.8534 108.408 41.7417C109.126 44.6299 106.606 47.7574 102.761 48.714Z" fill="#F26121"/>
<path opacity="0.2" d="M102.761 48.714C98.9341 49.6706 95.2364 48.1069 94.5189 45.2186C93.8015 42.3304 96.3586 39.2213 100.148 38.2647C103.938 37.3081 107.691 38.8534 108.408 41.7417C109.126 44.6299 106.606 47.7574 102.761 48.714Z" fill="white"/>
<path opacity="0.15" d="M105.686 40.5645C107.305 41.5211 106.422 44.5933 102.926 45.6971C100.167 46.5802 97.1864 45.9915 96.285 44.5565C96.1332 44.301 96.0338 44.0178 95.9924 43.7235C95.9509 43.4292 95.9684 43.1295 96.0437 42.842C96.119 42.5545 96.2506 42.2848 96.431 42.0485C96.6114 41.8123 96.8369 41.6143 97.0944 41.4659C96.4138 42.4777 96.7633 43.7287 98.419 44.3358C99.4788 44.6927 100.609 44.7888 101.714 44.6159C102.819 44.443 103.866 44.0061 104.766 43.3424C105.796 42.4593 106.182 41.3371 105.686 40.5645Z" fill="black"/>
<path d="M76.104 69.9254C72.9029 74.267 67.6599 75.8124 64.4037 73.4024C61.1475 70.9924 61.1107 65.5286 64.3118 61.187C67.5128 56.8454 72.7558 55.3001 76.012 57.7284C79.2682 60.1568 79.3234 65.6022 76.104 69.9254Z" fill="#F26121"/>
<path opacity="0.2" d="M76.104 69.9254C72.9029 74.267 67.6599 75.8124 64.4037 73.4024C61.1475 70.9924 61.1107 65.5286 64.3118 61.187C67.5128 56.8454 72.7558 55.3001 76.012 57.7284C79.2682 60.1568 79.3234 65.6022 76.104 69.9254Z" fill="white"/>
<path opacity="0.15" d="M72.1487 58.8322C74.669 58.4458 76.3799 62.5115 73.6756 66.6323C71.5232 69.9437 67.8807 71.8938 65.6731 71.1579C65.2923 71.0223 64.9422 70.8125 64.6431 70.5406C64.344 70.2686 64.1018 69.94 63.9307 69.5738C63.7596 69.2076 63.6629 68.8111 63.6462 68.4072C63.6295 68.0033 63.6931 67.6001 63.8334 67.221C64.0174 68.8767 65.4707 69.8701 67.7151 69.0607C69.1446 68.5225 70.4221 67.6453 71.4379 66.5046C72.4536 65.3638 73.1773 63.9936 73.5468 62.5115C73.9516 60.6534 73.3261 59.2185 72.1487 58.8322Z" fill="black"/>
<path d="M63.0975 97.0789C63.5942 100.501 61.9201 103.573 59.4181 103.941C56.9162 104.309 54.359 101.862 53.8991 98.4219C53.4392 94.9817 55.0765 91.9278 57.5785 91.5599C60.0804 91.192 62.6008 93.7307 63.0975 97.0789Z" fill="#F26121"/>
<path opacity="0.2" d="M63.0975 97.0789C63.5942 100.501 61.9201 103.573 59.4181 103.941C56.9162 104.309 54.359 101.862 53.8991 98.4219C53.4392 94.9817 55.0765 91.9278 57.5785 91.5599C60.0804 91.192 62.6008 93.7307 63.0975 97.0789Z" fill="white"/>
<path opacity="0.15" d="M56.2722 93.8963C57.2472 92.5901 59.8228 93.6203 60.4851 96.7478C61.0186 99.2313 60.2459 101.77 58.9213 102.432C58.6859 102.54 58.4314 102.601 58.1725 102.61C57.9136 102.619 57.6555 102.578 57.4128 102.487C57.1701 102.397 56.9477 102.259 56.7583 102.082C56.5689 101.905 56.4162 101.693 56.309 101.457C57.1369 102.138 58.1487 101.936 58.903 100.556C59.2942 99.6783 59.4714 98.7204 59.4203 97.7609C59.3691 96.8015 59.0909 95.8679 58.6086 95.0369C57.9647 93.9147 56.9897 93.5467 56.2722 93.8963Z" fill="black"/>
<path d="M142.074 132.308C144.65 130.009 148.145 129.733 149.875 131.665C151.604 133.596 150.905 137.055 148.329 139.336C145.754 141.617 142.24 141.912 140.511 139.98C138.781 138.048 139.481 134.59 142.074 132.308Z" fill="#F26121"/>
<path opacity="0.2" d="M142.074 132.308C144.65 130.009 148.145 129.733 149.875 131.665C151.604 133.596 150.905 137.055 148.329 139.336C145.754 141.617 142.24 141.912 140.511 139.98C138.781 138.048 139.481 134.59 142.074 132.308Z" fill="white"/>
<path opacity="0.15" d="M143.086 139.778C141.467 139.778 140.915 136.963 143.086 134.7C144.926 132.861 147.409 132.161 148.697 132.861C148.92 132.996 149.113 133.174 149.265 133.386C149.417 133.597 149.526 133.836 149.584 134.09C149.642 134.344 149.649 134.607 149.604 134.863C149.559 135.12 149.464 135.364 149.323 135.583C149.433 134.516 148.66 133.744 147.133 133.891C146.167 134.042 145.252 134.425 144.467 135.009C143.681 135.592 143.05 136.357 142.626 137.239C142.203 138.398 142.405 139.391 143.086 139.778Z" fill="black"/>
<path d="M128.976 80.2828C126.032 78.6823 124.487 75.4629 125.72 73.1633C126.952 70.8637 130.411 70.3486 133.446 71.9859C136.482 73.6232 137.953 76.8058 136.721 79.087C135.488 81.3682 132.03 81.9201 128.976 80.2828Z" fill="#F26121"/>
<path opacity="0.2" d="M128.976 80.2828C126.032 78.6823 124.487 75.4629 125.72 73.1633C126.952 70.8637 130.411 70.3486 133.446 71.9859C136.482 73.6232 137.953 76.8058 136.721 79.087C135.488 81.3682 132.03 81.9201 128.976 80.2828Z" fill="white"/>
<path opacity="0.15" d="M135.672 76.8427C136.132 78.4064 133.833 79.8598 130.871 78.5352C128.553 77.4682 126.989 75.3342 127.191 73.8809C127.244 73.6269 127.346 73.3858 127.492 73.1714C127.638 72.957 127.825 72.7736 128.042 72.6317C128.259 72.4898 128.502 72.3922 128.757 72.3446C129.012 72.2969 129.274 72.3001 129.528 72.3539C128.498 72.6115 128.001 73.6233 128.7 74.9847C129.183 75.8269 129.861 76.5407 130.677 77.0658C131.494 77.5909 132.425 77.9119 133.391 78.0017C134.679 78.0753 135.525 77.5418 135.672 76.8427Z" fill="black"/>
<path d="M111.518 117.922C114.958 117.646 117.92 119.523 118.122 122.117C118.324 124.711 115.712 127.029 112.272 127.305C108.832 127.581 105.851 125.704 105.649 123.11C105.447 120.516 108.077 118.198 111.518 117.922Z" fill="#F26121"/>
<path opacity="0.2" d="M111.518 117.922C114.958 117.646 117.92 119.523 118.122 122.117C118.324 124.711 115.712 127.029 112.272 127.305C108.832 127.581 105.851 125.704 105.649 123.11C105.447 120.516 108.077 118.198 111.518 117.922Z" fill="white"/>
<path opacity="0.15" d="M107.82 124.508C106.569 123.46 107.82 120.958 110.947 120.498C113.449 120.13 115.933 121.068 116.466 122.338C116.561 122.58 116.606 122.839 116.6 123.1C116.594 123.36 116.536 123.616 116.43 123.854C116.324 124.092 116.171 124.307 115.982 124.485C115.792 124.664 115.569 124.803 115.326 124.895C116.061 124.104 115.933 123.055 114.608 122.227C113.739 121.774 112.773 121.538 111.793 121.538C110.813 121.538 109.848 121.774 108.979 122.227C107.93 122.834 107.525 123.773 107.82 124.508Z" fill="black"/>
<path d="M158.631 77.3393C157.307 74.1383 158.19 70.7533 160.581 69.7599C162.973 68.7665 166.1 70.551 167.333 73.752C168.566 76.953 167.774 80.338 165.364 81.3314C162.955 82.3248 159.956 80.5219 158.631 77.3393Z" fill="#F26121"/>
<path opacity="0.2" d="M158.631 77.3393C157.307 74.1383 158.19 70.7533 160.581 69.7599C162.973 68.7665 166.1 70.551 167.333 73.752C168.566 76.953 167.774 80.338 165.364 81.3314C162.955 82.3248 159.956 80.5219 158.631 77.3393Z" fill="white"/>
<path opacity="0.15" d="M166.045 78.8293C165.42 80.3379 162.66 79.9699 161.262 77.1001C160.14 74.8189 160.269 72.1698 161.391 71.1947C161.593 71.0318 161.826 70.9106 162.076 70.8381C162.325 70.7656 162.587 70.7433 162.845 70.7724C163.103 70.8014 163.353 70.8814 163.58 71.0075C163.807 71.1337 164.007 71.3036 164.169 71.5075C163.194 71.0476 162.182 71.5075 161.851 73.016C161.68 73.98 161.743 74.9708 162.034 75.9055C162.326 76.8401 162.837 77.6913 163.525 78.3878C164.445 79.2157 165.438 79.3445 166.045 78.8293Z" fill="black"/>
<path d="M101.933 97.5572C102.098 93.0316 106.477 89.5179 111.72 89.7202C116.963 89.9226 121.047 93.7491 120.918 98.2747C120.789 102.8 116.374 106.314 111.131 106.112C105.888 105.909 101.749 102.083 101.933 97.5572Z" fill="#F26121"/>
<path opacity="0.2" d="M101.933 97.5572C102.098 93.0316 106.477 89.5179 111.72 89.7202C116.963 89.9226 121.047 93.7491 120.918 98.2747C120.789 102.8 116.374 106.314 111.131 106.112C105.888 105.909 101.749 102.083 101.933 97.5572Z" fill="white"/>
<path opacity="0.15" d="M117.423 100.758C119.06 98.2931 117.754 94.3378 113.523 92.7557C109.291 91.1736 103.22 94.5953 104.324 98.5874C105.221 97.3567 106.425 96.384 107.817 95.7671C109.209 95.1503 110.739 94.9111 112.253 95.0737C115.767 95.5704 117.791 98.1827 117.423 100.758Z" fill="black"/>
</svg>
